<?xml version="1.0" encoding="utf-8"?>
<!-- Generator: Adobe Illustrator 21.0.0, SVG Export Plug-In . SVG Version: 6.00 Build 0)  -->
<svg version="1.1" id="Layer_1" xmlns="http://www.w3.org/2000/svg" xmlns:xlink="http://www.w3.org/1999/xlink" x="0px" y="0px"
	 viewBox="0 0 300 300" style="enable-background:new 0 0 300 300;" xml:space="preserve">
<style type="text/css">
	.st0{fill:#111111;}
</style>
<g>
	<path class="st0" d="M33.6,166.2c-12.3,3.6-18.1,14.3-14.9,26.7c4.3,16.1,11.5,30.7,21.6,43.9c0.9,1.2,2.4,2.3,2.6,3.5
		c0.3,2.1,0.3,5.6-0.8,6.2c-1.7,0.9-5.5,0.8-6.5-0.5c-3.8-4.3-7.7-8.7-10.2-13.8c-5.9-12.6-12.3-25.2-16.4-38.6
		c-5.5-17.9,7.6-35.8,26.3-38.1c5.9-0.8,8,1.2,8.4,7.3c2.1,56.2,48.1,97.9,104.2,94.3c41.8-2.7,79-36,87.5-78.8
		c1.4-6.8,2.3-14,2.3-20.8c0.3-32.9,0.2-65.7,0-98.7c0-1.4-0.2-2.9-0.3-5c-4.4,0-8.7,0.3-12.8-0.2c-2.1-0.3-4.7-1.5-5.8-3.2
		c-0.8-1.2,0.3-4.3,1.5-5.8c10.5-12.3,21.1-24.3,31.7-36.3c3.8-4.3,6.2-4.3,10,0.2c10.3,11.8,20.8,23.5,31,35.5
		c1.4,1.7,2.6,5.2,1.8,6.7c-0.8,1.7-4.1,2.6-6.4,2.9c-3.6,0.5-7.3,0.2-11.8,0.2c0,5.3,0,10.2,0,15c0,8.8,0,17.8,0,26.6
		c0,3.5-0.9,6.5-5,6.5c-4.3,0-4.9-3-4.9-6.5c0-14.4,0-28.8,0-43.3c0-7.1,0.8-7.9,7.9-8c1.4,0,2.9-0.2,5.5-0.3
		c-8-9.1-15.3-17.5-23.1-26.4c-7.7,8.8-14.9,17-22.9,26.1c2.1,0.3,3.5,0.6,4.9,0.6c7.4,0.2,8.4,0.9,8.4,8.2c0,19.9,0,39.9,0,59.8
		c0,15.2,0,30.4,0,45.4c-0.2,52.5-36.4,97-87.3,107.6C104.5,276.6,46.8,238.1,36,182.3C35.3,177.2,34.5,171.9,33.6,166.2z"/>
	<path class="st0" d="M58.2,153.9c1.1-26.4,15.3-51.6,44.6-66.7c29-14.9,57.7-12.5,85,5.6c1.4,0.9,3.2,1.8,3.8,3.2
		c0.6,1.8,1.1,4.7,0.2,5.9c-0.9,1.2-3.8,1.4-5.8,1.1c-1.7-0.3-3-2-4.6-2.9c-24.7-16.7-56.5-16.9-81.4-0.2
		c-24.6,16.4-36.7,46.8-30.4,76.1C76,205,98.9,226.7,128.2,232c28.7,5.2,57.7-7.3,73.5-31.6c16.2-25.1,15.9-56.2-0.8-80.9
		c-2.1-3.2-6.5-6.8-1.4-10.3c4.9-3.2,7.1,1.8,9.4,5c34.3,49.2,3.9,119.2-55.6,127.7C102.4,249,58.2,211.2,58.2,153.9z"/>
	<path class="st0" d="M164,136c-1.4-7.9-5.8-13.1-12.3-16.4c-3.5-1.8-6.2-3.3-6.4-8c0-1.5-3-3.9-4.7-3.9c-1.5,0-4.3,2.6-4.4,4.3
		c-0.3,4.1-2.6,5.6-5.8,7.3c-15.6,8-18.8,28.1-6.5,40.7c4.4,4.4,9.7,5.5,15.8,5.3c9.3-0.2,15.6,6.4,15.3,15
		c-0.3,7.6-6.2,13.7-13.8,13.8c-7.6,0.3-14.4-5.2-15-12.6c-0.2-2.3,1.2-4.6,2-7.3c-14.1-5.9-21.3-17.8-21.4-33.7
		c0-12,5.5-21.1,15.2-28.1c2.1-1.5,3.8-3.8,5-6.1c2.9-5.6,7-9,13.4-9.1s10.9,3.2,13.8,9.3c1.1,2.1,2.7,4.3,4.7,5.6
		c9.1,6.2,14.4,14.7,15.6,25.7c0.6,5.8-1.2,7.9-7,8c-5,0.2-10,0-15,0.2c-3.8,0.2-5.9-1.2-7.3-5.2c-0.6-2-3.5-3.5-5.8-4.3
		c-0.6-0.2-3.8,3.9-3.3,4.4c1.4,2,3.6,4.6,5.6,4.7c10.3,0.9,18.8,4.9,25.4,13.1c12.3,15.5,9,37.4-7.1,48.9c-2.4,1.8-4.7,4.6-6.1,7.1
		c-2.9,5.2-8,9-13.8,8.7c-6.1-0.3-10.2-3.6-13.1-9c-1.4-2.4-3.2-4.9-5.3-6.5c-9-6.5-14.1-14.9-14.9-26c-0.3-3.3,0.2-6.7,4.4-7
		c3.8-0.3,4.7,2.4,5.2,5.8c1.1,10,6.1,17.2,15.2,21.6c2,0.9,2.7,4.1,4.3,6.2c0.3,0.5,0.8,0.9,1.1,1.4c2,2.3,5.5,2.6,7.4,0.3
		c0.5-0.5,0.6-0.9,0.8-1.4c0.5-4.3,2.7-5.9,6.1-7.6c9.4-4.6,14.6-14.6,13.4-24.6c-1.4-10.5-9-18.5-19.6-20.6c-2-0.5-4.1-0.5-6.1-0.8
		c-7-1.1-12.3-6.5-12.9-13.2c-0.6-6.2,3.3-12.5,9.6-14.7c6.4-2.4,13.4-0.6,16.9,5.5C155.5,138.2,159.6,135.7,164,136z M133.8,175
		c2.9,3.9,1.4,10.3,7.9,9.1c1.5-0.3,3.9-3.6,3.6-5.2C143.8,173.1,138.7,175.7,133.8,175z"/>
	<path class="st0" d="M266.8,142.3c0-8.4-0.3-16.7,0.2-24.9c0-0.5,0.2-0.8,0.5-1.2c1.7-2.7,5.5-3.2,7.7-0.9c0.8,0.6,1.2,1.4,1.2,2
		c-0.2,25.7,2.9,51.5-4.7,76.5c-16.7,54.8-52.4,89.9-109,100.4c-41.3,7.6-78.6-3.9-110.8-31.1c-2.7-2.3-5.2-4.9-2.4-8.4
		c3.2-3.8,6.2-1.2,9,1.2c26,22,56,32.2,90,30.4c54.7-3,103.4-44.6,114.8-98.8c3-14.7,3.3-29.9,5-44.9
		C267.7,142.4,267.3,142.4,266.8,142.3z"/>
	<path class="st0" d="M62.9,53.7c0,2.7,0,4.7,0,6.7c0,16.2,0,32.5,0,48.7c0,6.5-0.9,7.4-7.3,7.6c-8.4,0-16.7,0-24.9,0
		c-4.7,0-6.7-2.1-6.7-6.7c0.2-13.4,0-26.6,0-39.9c0-3.6,1.2-6.5,5.2-6.5c3.9,0,4.9,3.2,4.7,6.7c0,12,0,24,0,36.4h19.4
		c0-5,0-9.7,0-14.6c0-12.8,0-25.5,0-38.3c0-5.3,4.3-9.7,9.6-9.9c0.9,0,1.7-0.2,3.8-0.5c-7.9-9.1-15.3-17.5-22.9-26.3
		c-7.7,8.8-15,17-23.4,26.7c3.6,0,6.1-0.6,8,0.2c0.6,0.3,1.2,0.6,1.8,1.1c2.4,2,2.4,5.8-0.2,7.6c-0.5,0.3-0.8,0.5-1.2,0.5
		c-6.2,0.6-12.6,0.5-18.8,0.2c-4.9-0.3-6.7-4.6-3.5-8.2C17.4,32.6,28.3,20.2,39.4,7.6c2.9-3.3,6.1-3,9,0.2
		C59.1,20,70.1,32.5,80.7,44.9c1.1,1.4,2,4.1,1.2,5.3c-0.9,1.5-3.3,2.9-5.2,3.2C72.3,54,67.9,53.7,62.9,53.7z"/>
	<path class="st0" d="M136,44.2c0,7.1,0,13.7,0,20c0,3.6-1.2,6.5-5.2,6.4c-3.6-0.2-4.7-2.9-4.7-6.2c0-7.4,0-14.7,0-22.2
		c0-6.2,0.8-7.1,8-8.4c-4.4-4.7-8.4-9.1-12.9-14c-4.3,4.7-8.2,9-12.8,14c8.2,0,8,5.2,7.9,10.5c-0.2,6.7-0.2,13.2,0,19.9
		c0,3.3-0.8,6.2-4.6,6.4c-4.1,0.2-5-2.9-5-6.5c0-6.4,0-12.9,0-20c-3.5,0-6.4,0.2-9.3,0c-5.2-0.5-7.1-4.7-3.8-8.5
		c7.6-8.8,15.5-17.3,23.4-25.8c2.6-2.9,5.5-2.7,8.2,0.2c7.9,8.5,15.8,17,23.4,25.8c3.3,3.8,1.2,8-3.9,8.5
		C142.2,44.3,139.3,44.2,136,44.2z"/>
	<path class="st0" d="M199,60.6c0,2.3,0.6,5.8-0.2,9.1c-0.5,2.1-2.7,5-4.7,5.5c-3.6,0.8-5-2.3-5-5.6c0-4.4-0.3-9,0.2-13.4
		c0.3-2.7,1.8-5.5,3.2-9.6c-1.8-2.4-4.7-6.5-8-11.2c-3.3,4.6-6.2,8.5-8.2,11.1c1.4,4.1,2.7,7.1,3,10.2c0.5,4.4,0.6,9-0.2,13.2
		c-0.2,0.6-0.5,1.2-0.8,1.7c-2,2.6-6.2,2.4-7.9-0.3c-0.2-0.3-0.3-0.8-0.5-1.1c-0.8-3.5-0.2-7.3-0.2-11.2c-2-0.2-3.5-0.2-4.9-0.3
		c-4.3-0.8-6.2-4.1-3.8-7.6c6.2-9,12.6-17.8,19.1-26.4c2.7-3.6,5.9-3,9,1.2c5.3,7.1,10.6,14.3,15.6,21.6c1.7,2.4,3.5,5.9,2.7,8.2
		C207,57.5,202.9,58.4,199,60.6z"/>
	<path class="st0" d="M84.9,174.7c-2.4-9.3-2.4-19.1,0-28.4c0.8-2.9,1.5-5.6,2.3-8.5c0.9-3.3,3.2-5.6,7-3.9c3.5,1.5,3.3,4.3,2,7.4
		c-5.3,12.9-5.5,25.8,0.2,38.7c1.4,3.2,1.2,5.9-2.3,7.3c-3.5,1.4-5.8-0.6-6.8-3.8C86.5,180.5,85.7,177.6,84.9,174.7z"/>
	<path class="st0" d="M196.8,147.7c2.1,8.2,2.1,17,0,25.2c-0.9,3.5-1.8,7-2.9,10.5c-0.9,3.2-3.2,5.2-6.7,3.9
		c-3.6-1.4-3.3-4.6-2.1-7.4c5.3-12.9,5.5-25.8,0-38.7c-1.2-3-1.5-5.9,2-7.6c3.9-1.7,6.1,0.9,7,4.1
		C195.2,141,196.1,144.4,196.8,147.7z"/>
</g>
</svg>
