<?xml version="1.0" encoding="utf-8"?>
<!-- Generator: Adobe Illustrator 21.0.0, SVG Export Plug-In . SVG Version: 6.00 Build 0)  -->
<svg version="1.1" id="Layer_1" xmlns="http://www.w3.org/2000/svg" xmlns:xlink="http://www.w3.org/1999/xlink" x="0px" y="0px"
	 viewBox="0 0 300 300" style="enable-background:new 0 0 300 300;" xml:space="preserve">
<style type="text/css">
	.st0{fill:#111111;}
</style>
<g>
	<path class="st0" d="M154.2,0.2c3.5,1.4,7.3,2.4,10.3,4.4c9,6,13.1,14.9,11.6,25.6c-1.7,11.6-8.7,18.8-19.9,22
		c-0.3,0.2-0.8,0.2-1.3,0.5c12.5,2.1,22.8,7.8,30.5,17.9c7.8,10.3,9.5,22.2,8.4,34.8c-29.1,0-58.1,0-87.4,0
		c-1.3-12.3,0.5-24.2,8.1-34.5s18-16.1,30.5-17.9c-3.3-1.6-7-2.7-9.8-4.7c-8.9-6.2-12.8-14.9-11.2-25.5c1.7-11.1,8.4-18.4,19.1-21.7
		c0.9-0.3,1.9-0.6,2.7-0.9C148.7,0.2,151.4,0.2,154.2,0.2z M125.6,87.7c16.5,0,32.6,0,48.9,0c-2.8-10-13.6-17.4-24.5-17.4
		C139,70.5,128.4,77.9,125.6,87.7z M150.1,35.3c4.6,0,8.7-4.1,8.7-8.9c0-4.6-4.1-8.7-8.9-8.7c-4.6,0-8.7,4.1-8.7,8.9
		C141.2,31,145.5,35.3,150.1,35.3z"/>
	<path class="st0" d="M49,228.9c14.2,2.4,25.3,9.2,32.9,21.5c5.9,9.5,6.8,20.1,6,31c-29.1,0-58.1,0-87.4,0
		c-1.3-12.5,0.5-24.2,8.2-34.5c7.6-10.3,18-16.1,31.2-17.9c-16.6-6-24.4-17.3-21.7-31.2c2.7-13.6,14.1-22.3,28.2-21.5
		c12,0.6,22.6,11.1,24.1,23.3C71.8,213.4,63.2,225.1,49,228.9z M68.4,264c-2.4-9.8-13.9-17.7-25-17.4c-10.9,0.3-22,8.5-23.7,17.4
		C36,264,52.3,264,68.4,264z M44.2,211.5c4.6,0,8.7-4.3,8.7-8.9c0-4.6-4.3-8.7-8.9-8.7c-4.6,0-8.7,4.3-8.7,8.9
		C35.4,207.4,39.6,211.5,44.2,211.5z"/>
	<path class="st0" d="M260.9,228.9c13.3,2.1,24.1,8.4,31.7,19.6c6.8,10,8.2,21,7.1,32.9c-29,0-58.1,0-87.4,0
		c-1.3-12.5,0.5-24.2,8.2-34.5c7.6-10.3,18-16,31.3-17.9c-18.8-4.9-23.9-19.8-22-30.2c2.4-13.8,13.5-22.6,27.5-22.3
		c12.3,0.3,23.3,10.4,24.8,23.1C283.8,213,275.3,224.8,260.9,228.9z M280.4,264c-2.1-9.5-13.3-17.4-24.4-17.4
		c-11.1,0-22.5,8.1-24.4,17.4C247.9,264,264.1,264,280.4,264z M256,211.5c4.6,0,8.7-4.1,8.9-8.7c0-4.6-4.1-8.7-8.7-8.9
		c-4.6,0-8.7,4.1-8.9,8.7C247.3,207.2,251.4,211.5,256,211.5z"/>
	<path class="st0" d="M99.3,230.6c-3.3-4.9-6.5-9.5-10-14.4c0.9-0.8,1.7-1.4,2.7-1.9c10.1-7,20.4-14.1,30.7-21
		c1.3-0.8,1.9-1.7,1.6-3.3c-2.2-12,3.8-23.6,14.7-28.6c1.7-0.8,2.4-1.7,2.4-3.6c-0.2-10.1,0-20.3,0-30.4c0-1.1,0-2.1,0-3.3
		c5.9,0,11.4,0,17.6,0c0,0.9,0,1.9,0,3c0,10.3,0,20.4,0,30.7c0,1.9,0.5,2.8,2.4,3.6c11.1,5.1,16.9,16.6,14.9,28.6
		c-0.3,1.9,0.5,2.5,1.7,3.5c10.1,7,20.3,13.9,30.4,20.7c0.8,0.5,1.6,1.1,2.7,1.9c-3.3,4.7-6.5,9.5-9.8,14.4c-1.1-0.6-2.1-1.3-3-1.9
		c-10.1-7-20.3-13.8-30.4-20.9c-1.4-0.9-2.4-0.9-3.8-0.2c-9,5.2-18.2,5.2-27.2,0c-1.7-0.9-2.7-0.8-4.1,0.2
		C121.5,215.4,110.5,222.9,99.3,230.6z M158.8,185.2c0.2-4.6-4-8.9-8.7-8.9c-4.6-0.2-8.9,4-8.9,8.7c-0.2,4.6,4,8.9,8.7,8.9
		C154.5,193.9,158.8,189.9,158.8,185.2z"/>
	<path class="st0" d="M112,293.3c2.1-5.7,3.8-10.9,5.9-16.6c21.4,7.3,42.7,7.3,64.4,0c1.9,5.5,3.8,10.9,5.9,16.6
		C162.8,302,137.6,302,112,293.3z"/>
	<path class="st0" d="M214.4,113c4-4.4,7.8-8.7,11.7-13.1c14.6,13.1,25,28.8,31.8,47.5c-5.5,1.9-10.9,3.8-16.6,5.9
		C235.6,137.6,226.7,124.3,214.4,113z"/>
	<path class="st0" d="M58.9,153.2c-5.5-1.9-10.9-3.8-16.6-5.9c6.5-18.5,17.1-34.2,31.7-47.5c4,4.4,7.8,8.7,11.7,13.1
		C73.5,124.3,64.6,137.6,58.9,153.2z"/>
</g>
</svg>
