<?xml version="1.0" encoding="utf-8"?>
<!-- Generator: Adobe Illustrator 21.0.0, SVG Export Plug-In . SVG Version: 6.00 Build 0)  -->
<svg version="1.1" id="Layer_1" xmlns="http://www.w3.org/2000/svg" xmlns:xlink="http://www.w3.org/1999/xlink" x="0px" y="0px"
	 viewBox="0 0 300 300" style="enable-background:new 0 0 300 300;" xml:space="preserve">
<style type="text/css">
	.st0{fill:#111111;}
</style>
<g>
	<path class="st0" d="M144.9,12.1c5.3,0.9,10.5,1.5,15.6,2.5c24.2,5.1,44.9,16.5,63,33.1c15.8,14.5,28,31.6,37.6,50.5
		c2,3.8,1.5,7.1-1.1,10.5c-18,23.2-41.4,38.9-69,48.3c-13.6,4.7-27.6,7.4-42,8.4c-1.5,0.2-2.9,0.4-4.5,0.5c0,14.9,0,29.8,0,44.9
		c0.9,0,1.8,0.2,2.7,0.2c12.9,0,25.6,0,38.5,0c1.5,0,3.1-0.5,4.4-1.3c4-2.2,7.8-4.5,11.6-6.7c1.8-0.9,2.2-2,2-3.8
		c-0.7-13.3,7.3-23.6,20.2-26.3c15.6-3.3,30.9,10.7,28.9,26.5c-0.2,1.8,0.2,2.5,1.6,3.5c5.1,2.7,10,5.8,14.9,8.5
		c3.5,2,5.1,4.7,5.1,8.7c-0.2,5.8,0,11.4,0,17.3c0,1.5,0.4,2.4,1.8,3.1c10.2,4.7,16,14.9,14.5,25.6c-1.5,11.1-9.8,19.8-21.1,21.4
		c-6.4,0.9-12.3-0.5-17.6-4.4c-1.5-1.1-2.4-1.1-3.8-0.2c-4.9,2.9-10,5.8-14.9,8.7c-3.5,2-6.7,2-10,0c-4.9-2.9-10-5.8-14.9-8.7
		c-1.3-0.7-2.2-0.9-3.6,0c-8,5.4-16.5,6.4-25.2,2.2c-8.9-4.2-13.4-11.6-14-21.4c-0.7-9.4,5.1-18.9,14.2-23.2
		c1.8-0.9,2.4-1.8,2.2-3.6c-0.2-3.1,0-6.2,0-9.8c-1.1,0-2,0-3.1,0c-14,0-27.8,0-41.8,0c-6,0-9.1-3.3-9.1-9.1c0-16.3,0-32.7,0-49.2
		c0-0.9,0-2,0-3.1c-5.4-0.5-10.9-0.9-16.2-1.8c-40-6.2-74.1-23.1-99.5-55.4c-0.9-1.3-1.6-2.5-2.5-3.8c0-1.5,0-2.9,0-4.4
		c0.2-0.2,0.4-0.4,0.5-0.7C21.6,76.3,36.9,56.3,57,40.1c16.9-13.4,35.8-22.5,57-26.3c4.4-0.7,8.9-1.5,13.3-2
		C133.3,12.1,139.1,12.1,144.9,12.1z M182.9,102.8c0-25.6-20.9-46.7-46.5-46.7S89.7,77,89.6,102.6s21.1,46.9,46.7,46.9
		C161.8,149.4,182.9,128.4,182.9,102.8z M258.1,232.1c0-1.8-0.2-3.6,0-5.4c0.2-1.8-0.5-2.9-2.2-3.8c-3.3-1.8-6.5-3.8-9.8-5.4
		c-0.9-0.4-2.5-0.4-3.3,0.2c-9.4,6.2-19.8,6.4-29.1,0c-1.3-0.9-2.2-0.9-3.5-0.2c-3.3,2-6.9,3.8-10.2,6c-0.7,0.5-1.6,1.8-1.6,2.7
		c-0.2,4.2-0.2,8.2,0,12.3c0,0.9,0.9,2,1.6,2.4c10.4,5.3,15.3,13.8,14.5,25.4c0,0.9,0.7,2.2,1.5,2.7c3.3,2.2,6.9,4,10.2,6
		c1.5,0.9,2.4,0.7,3.8,0c3.3-2,6.4-3.8,9.8-5.6c1.5-0.7,2-1.8,1.8-3.5c-0.7-9.6,2.7-17.8,11.1-22.7
		C257.5,240.1,259.2,237.2,258.1,232.1z M186.9,140.9c0.7-0.2,1.1-0.2,1.5-0.4c20.5-7.4,38.5-18.9,53.2-35.2c1.8-2,1.6-3.3-0.2-5.1
		c-13.3-14.9-29.4-25.6-47.8-33.1c-2.2-0.9-4.4-1.6-6.9-2.5C203.6,90.1,203.6,115.3,186.9,140.9z M85.4,64.6
		c-0.7,0.2-1.3,0.2-1.6,0.4c-20.5,7.4-38.5,18.9-53.2,35.2c-2,2.2-1.5,3.3,0.2,5.1c13.4,14.9,29.6,25.8,48.1,33.2
		c2,0.9,4.2,1.6,6.7,2.5C68.8,115.5,68.8,90.2,85.4,64.6z M68.7,52.8c8.4-2.7,17.1-6,26-8c9.1-2.2,18.3-3.6,27.6-4.4
		c9.3-0.7,18.9-0.7,28.2,0c9.3,0.7,18.5,2.4,27.6,4.4c8.9,2.2,17.4,5.4,26.2,8.2C162.4,19.2,105.7,22.1,68.7,52.8z M198.3,263.1
		c0-4.5-3.8-8.4-8.2-8.2c-4.4,0-8,3.6-8,8.2c0,4.5,3.6,8.4,8,8.4C194.7,271.3,198.3,267.7,198.3,263.1z M236.5,197.4
		c0-4.4-3.6-8.2-8.2-8.4c-4.4,0-8.2,3.6-8.2,8.2s3.6,8.2,8,8.4C232.7,205.6,236.5,201.7,236.5,197.4z M274.6,263.1
		c0-4.4-4-8.2-8.4-8.2s-8.2,4-8.2,8.4s4,8.2,8.4,8.2C270.8,271.3,274.6,267.5,274.6,263.1z"/>
	<path class="st0" d="M136.2,127.5c-13.6,0-24.7-11.1-24.7-24.9c0-13.6,11.1-24.7,24.9-24.5c13.6,0,24.5,11.1,24.5,24.7
		C160.9,116.6,149.8,127.5,136.2,127.5z M144.4,102.6c0-4.4-4-8.2-8.4-8.2c-4.4,0-8.2,4-8.2,8.4c0,4.4,4,8.2,8.4,8.2
		C140.8,110.9,144.6,106.9,144.4,102.6z"/>
</g>
</svg>
