<?xml version="1.0" encoding="utf-8"?>
<!-- Generator: Adobe Illustrator 21.0.0, SVG Export Plug-In . SVG Version: 6.00 Build 0)  -->
<svg version="1.1" id="Layer_1" xmlns="http://www.w3.org/2000/svg" xmlns:xlink="http://www.w3.org/1999/xlink" x="0px" y="0px"
	 viewBox="0 0 300 300" style="enable-background:new 0 0 300 300;" xml:space="preserve">
<style type="text/css">
	.st0{fill:#111111;}
</style>
<g>
	<path class="st0" d="M165.3-2c0,0.9,0,1.8,0,2.4c52.2,12.2,86,43.3,96.2,96.4c6.9,35.8-3.3,68.1-26.5,96.4c-2.4-2.2-4.6-4-6.6-5.7
		c29-38.2,35.1-78.9,13-122c-15.7-30.5-42-48.4-76-55.5c0,6.4,0,12.2,0.2,18.1c0,0.7,1.5,1.6,2.4,1.8c30.5,8.4,51.9,27.2,62.5,57
		c18.6,51.7-14.4,107.6-68.7,117.2c-44,7.9-91.9-20.5-101.9-67.2c-6.2-28.9-0.2-55.2,19-78.2c0.4-0.4,0.5-0.7,1.1-1.5
		c2.4,2,4.6,4,6.4,5.7c-4,6.2-8,12.2-12.2,18.6c16.1,6.6,31.4,13,45.1,18.6c3.8-4,7.1-7.3,11.1-11.3c-5.7-13.7-12.1-29-18.8-45.1
		c-6.6,4.6-13,8.8-19.4,13.1c-1.6-1.8-3.7-3.8-5.7-6.2c1.6-1.5,3.1-2.9,4.7-4.2c10-8,21.4-13.5,34-16.8c1.3-0.4,2.6-0.4,2.4-2.2
		c0-5.7,0-11.5,0-17.5c-13,2.2-24.8,6.6-35.8,13.3c-20.8,12.4-36,29.8-45.1,52c-18.3,44.4-4.7,95.9,32.5,125.3
		c21.5,17,45.8,24.8,73.2,23.6c27.2-1.5,50.6-12.1,70.1-30.9c2.2,2.2,4.2,4.2,6.2,6.2c-28.9,29.8-76.9,43.5-122.2,26.8
		C59.7,209.1,29.6,165.1,29.8,116c0-13.9,2.6-27.2,7.3-40.2C41.8,63,48.8,51.3,57.7,40.7c8.9-10.6,19.5-19.2,31.6-26.1
		C101.2,7.9,114,3.5,127.6,1.1c0-1.1,0.2-2,0.2-3.1C140.1-2,152.7-2,165.3-2z M162.5,143.9c5.8,13.9,12.2,29.2,18.6,44.7
		c16.8-8.6,29-20.8,37.3-37.4c-15.7-6.4-31-12.8-44.7-18.4C169.8,136.6,166.5,139.9,162.5,143.9z M130,144.1c-4-4.2-7.3-7.5-11-11.3
		c-14.1,5.8-29.4,12.2-44.9,18.6c8.6,16.8,20.8,29,37.4,37.3C118.2,173,124.5,157.8,130,144.1z M162.7,88.9c4,4,7.3,7.3,11.3,11.3
		c13.7-5.7,28.9-12.1,44.6-18.4c-8.4-16.8-20.6-29-37.4-37.3C174.6,60.1,168.2,75.2,162.7,88.9z M70.9,143
		c15.5-6.4,30.9-12.8,45.8-19c0-5.1,0-9.9,0-14.8c-15.2-6.2-30.5-12.6-46-19C64.8,107.9,64.8,125.3,70.9,143z M172.6,192.1
		c0-0.5,0-0.7,0-0.9c-6-14.6-12.1-29.2-18.3-43.8c-0.4-0.7-1.5-1.3-2.4-1.3c-3.5-0.2-7.1,0.2-10.6-0.2c-1.8-0.2-2.4,0.5-2.9,2
		c-2.4,5.8-4.7,11.7-7.1,17.5c-3.7,8.8-7.3,17.7-11,26.7C137.7,198,155,198,172.6,192.1z M176,109c0,4.4,0.4,8.2-0.2,11.9
		c-0.2,2.4,0.5,3.1,2.4,3.8c13.3,5.5,26.7,11,40.2,16.4c1.1,0.5,2.4,0.9,3.7,1.5c5.8-17.7,5.8-35.1-0.2-52.8
		C206.2,96.6,191,102.8,176,109z M167.3,116.5c0-11.9-9.1-20.8-21-20.8c-11.5,0-20.8,9.3-20.6,20.8c0,11.7,9.1,20.8,20.6,20.8
		C158,137.5,167.3,128.2,167.3,116.5z M163.6,38.4c-4.2,8.9-8.2,17.7-12.1,26.3c-1.1,2.4-2.6,2.6-4.6,2.4c-2.2-0.2-4.4,0.5-5.5-2.4
		c-3.5-8.2-7.3-16.1-11-24.3c-0.7-1.6-1.6-2.2-3.3-1.6c-2.2,0.7-4.4,1.3-7.1,2.2c6.4,15.5,12.8,30.9,19,45.8c5.1,0,9.7,0,14.8,0
		c6.2-15,12.6-30.3,19-46C169.5,40,166.5,39.1,163.6,38.4z M146.3,54.1c2.4-5.1,4.4-9.7,6.6-14.1c1.3-2.6,3.3-5.1,3.3-7.9
		c0.5-7.7,0.2-15.3,0.2-23.2c-6.8,0-13.3,0-20.1,0c0,7.9,0,15.2,0,22.5c0,0.5,0.2,0.9,0.4,1.5C139.7,39.6,142.8,46.4,146.3,54.1z"/>
	<path class="st0" d="M45.3,301.2c0-15.9,0-31.8,0-47.7c11.9,0,23.6,0,35.4,0c1.6-6.8,3.1-13.3,4.7-20.3c2.9,0.7,5.7,1.3,8.8,2
		c-1.5,6-2.7,12.1-4.2,18.3c2.6,0,5.1,0.2,7.5,0c0.7,0,1.6-1.1,1.8-1.8c1.1-3.8,1.8-7.7,2.9-11.7c2.9,0.7,5.5,1.3,8.6,2
		c-0.9,3.8-1.6,7.5-2.6,11.5c25.2,0,50.4,0,75.6,0c-0.7-3.7-1.6-7.5-2.6-11.3c2.9-0.7,5.7-1.3,8.6-2c0.9,4,2,7.9,2.7,11.7
		c0.4,1.6,1.1,2,2.6,2c2.2-0.2,4.4,0,6.9,0c-1.5-6-2.7-12.1-4.2-18.1c2.9-0.7,5.7-1.3,8.8-2.2c1.6,6.8,3.1,13.3,4.7,20.3
		c11.7,0,23.6,0,35.4,0c0,16.1,0,31.8,0,47.8C180.1,301.2,112.9,301.2,45.3,301.2z M54.4,292.4c61.4,0,122.5,0,183.7,0
		c0-10,0-19.9,0-29.9c-61.4,0-122.5,0-183.7,0C54.4,272.5,54.4,282.3,54.4,292.4z"/>
	<path class="st0" d="M84.2,120.5c0-2.9,0-5.7,0-8.6c2.9,0,5.7,0,8.6,0c0,2.7,0,5.5,0,8.6C90,120.5,87.3,120.5,84.2,120.5z"/>
	<path class="st0" d="M143,171.9c2.7,0,5.5,0,8.4,0c0,2.9,0,5.7,0,8.8c-2.7,0-5.5,0-8.4,0C143,177.7,143,174.8,143,171.9z"/>
	<path class="st0" d="M200,120.9c0-3.3,0-6,0-8.9c2.9,0,5.8,0,8.9,0c0,2.6,0,5.1,0,7.5c0,0.5-0.9,1.5-1.3,1.5
		C205.1,121.1,202.5,120.9,200,120.9z"/>
	<path class="st0" d="M115.4,273c2.9,0,5.7,0,8.6,0c0,2.9,0,5.7,0,8.6c-2.7,0-5.7,0-8.6,0C115.4,278.9,115.4,276.1,115.4,273z"/>
	<path class="st0" d="M150.8,281.6c-3.1,0-5.8,0-8.8,0c0-2.9,0-5.5,0-8.6c2.9,0,5.8,0,8.8,0C150.8,276,150.8,278.5,150.8,281.6z"/>
	<path class="st0" d="M177.5,273c0,2.9,0,5.7,0,8.6c-2.9,0-5.8,0-8.8,0c0-2.7,0-5.7,0-8.6C171.7,273,174.4,273,177.5,273z"/>
</g>
</svg>
