<?xml version="1.0" encoding="utf-8"?>
<!-- Generator: Adobe Illustrator 21.0.0, SVG Export Plug-In . SVG Version: 6.00 Build 0)  -->
<svg version="1.1" id="Layer_1" xmlns="http://www.w3.org/2000/svg" xmlns:xlink="http://www.w3.org/1999/xlink" x="0px" y="0px"
	 viewBox="0 0 300 300" style="enable-background:new 0 0 300 300;" xml:space="preserve">
<style type="text/css">
	.st0{fill:#111111;}
</style>
<g>
	<path class="st0" d="M146.2,296.1c-15.7-3.9-29.6-11.7-42.5-20.9c-36.6-26-61.5-60.3-73.2-103.8c-4.4-16.2-5.9-32.9-5.9-49.5
		c0-19.6,0-39.1,0-58.7c0-5.9,1.1-7.5,6.9-9C70.7,43.3,107.9,27.5,143,7c4.4-2.6,7.9-2.6,12.3,0c35.2,20.6,72.2,36.3,111.5,47.2
		c5.8,1.6,6.9,3.1,6.9,9c0,22.4,0.2,44.8-0.3,67.3c-0.6,32.4-9.5,62.6-26.6,90.3c-17,27.4-40,48.7-67.9,64.8
		c-8.4,4.8-17.3,8.6-26.6,10.9C150,296.1,148.1,296.1,146.2,296.1z M36.9,101.3c-0.2,0-0.3,0-0.5,0c0.5,14,0.5,27.9,1.7,41.9
		c2,21.8,8.3,42.5,18.8,61.8c17.9,32.7,43.6,57.1,76.9,73.5c13.4,6.5,16.5,6.4,30,0.2c0.5-0.3,0.9-0.5,1.6-0.8
		c23.7-11.7,43.6-28.2,59.9-48.9c21.6-27.4,33.5-58.9,35.2-93.6c1.1-22.7,0.5-45.6,0.6-68.4c0-1.6-0.6-2.2-2-2.5
		c-4.7-1.4-9.5-2.8-14.2-4.4c-32.7-10.6-63.8-24.4-93.7-41.4c-1.7-0.9-3-1.1-4.7-0.2C112.8,38.3,76.9,53.5,39.3,64.4
		c-1.9,0.5-2.5,1.2-2.5,3.3C36.9,78.9,36.9,90.1,36.9,101.3z"/>
	<path class="st0" d="M129.3,160.5c1.2-1.7,1.9-2.6,2.6-3.4c19.2-19.2,38.5-38.5,57.6-57.6c6.4-6.4,13.7-8.7,22.3-5.8
		c12.5,4.4,17.1,20.2,9,30.7c-0.9,1.1-1.9,2.2-2.8,3.3c-24.4,24.6-49,49-73.5,73.5c-7.5,7.5-17,9-25.4,4c-1.6-0.9-3-2-4.2-3.3
		c-11.8-11.8-23.7-23.5-35.5-35.5c-9-9.2-8.3-22.3,1.4-30.2c7-5.8,18.1-5.9,24.9,0.5c7.2,6.5,14,13.7,20.9,20.6
		C127.4,157.9,128,158.8,129.3,160.5z M212.6,113.6c0-5-2.3-7.8-5.8-8.7c-3.6-0.9-6.2,0.8-8.6,3.3c-21,21-42,42-63.1,63.1
		c-4.5,4.5-7.3,4.4-11.8,0c-7.9-7.9-16-16-24-24c-1.2-1.2-2.8-2.3-4.5-2.8c-3.4-1.1-6.9,0.6-8.6,3.6c-1.7,3.1-1.1,6.7,1.9,9.7
		c11.5,11.5,23,23.2,34.7,34.7c4.5,4.5,8.4,4.4,12.9-0.2c12.8-12.8,25.7-25.7,38.5-38.5c11.7-11.7,23.4-23.4,35-35.2
		C211,116.9,211.9,114.6,212.6,113.6z"/>
	<path class="st0" d="M48.8,90.4c0-3.6,0-7.2,0-10.7c0-3.7,1.4-5.8,5-7c10.7-3.7,21.3-7.6,32.1-11.4c3.9-1.4,7.3-0.2,8.6,3.1
		c1.4,3.4-0.2,6.9-4.2,8.4c-8.9,3.3-17.7,6.5-26.8,9.7c-1.7,0.6-2.5,1.4-2.5,3.4c0.2,5.1,0.2,10.4,0,15.7c0,4.4-2.5,7-6.1,7.2
		c-3.7,0-6.2-2.6-6.2-7C48.8,97.9,48.8,94.2,48.8,90.4z"/>
	<path class="st0" d="M225.5,207.2c-0.9,1.9-1.4,3.4-2.3,4.8c-10,15.1-22.3,27.7-36.4,38.9c-3.3,2.6-6.9,2.5-9.2-0.3
		c-2.3-2.8-1.9-6.4,1.4-9.3c7-6.4,14.2-12.6,20.7-19.5c5-5.3,9-11.4,13.5-17.1c2.8-3.6,6.7-4.7,9.5-2
		C223.8,203.8,224.4,205.5,225.5,207.2z"/>
	<path class="st0" d="M160.9,256.9c0-3.6,3-6.4,6.5-6.4c3.3,0,6.1,3,5.9,6.2c-0.2,3.3-3.3,6.2-6.5,6.2S160.9,260.3,160.9,256.9z"/>
	<path class="st0" d="M106.4,53.4c3.3,0,6.2,3,6.1,6.2c0,3.3-3,6.1-6.2,6.1c-3.1,0.2-6.2-3-6.1-6.2
		C100.1,56.3,103.1,53.4,106.4,53.4z"/>
</g>
</svg>
